PathFileType	4	(X/Y/Z)	c:/Users/goper/Files/vsCode/490R/osim_files/C07/C07_Slow_03.trc
DataRate	CameraRate	NumFrames	NumMarkers	Units                	OrigDataRate	OrigDataStartFrame	OrigNumFrames
250.00	250.00	4	36	mm	250.0	1831	2929
                Frame#	Time	LPSIS			LASIS			LTH1			LTH2			LTH3			LTH4			LLFE			LMFE			LSH1			LSH2			LSH3			LSH4			LLMAL			LMMAL			LCAL			LMTP5			LTOE			LMTP1			RPSIS			RASIS			RTH1			RTH2			RTH3			RTH4			RLFE			RMFE			RSH1			RSH2			RSH3			RSH4			RLMAL			RMMAL			RCAL			RMTP1			RTOE			RMTP5		
		X1	Y1	Z1	X2	Y2	Z2	X3	Y3	Z3	X4	Y4	Z4	X5	Y5	Z5	X6	Y6	Z6	X7	Y7	Z7	X8	Y8	Z8	X9	Y9	Z9	X10	Y10	Z10	X11	Y11	Z11	X12	Y12	Z12	X13	Y13	Z13	X14	Y14	Z14	X15	Y15	Z15	X16	Y16	Z16	X17	Y17	Z17	X18	Y18	Z18	X19	Y19	Z19	X20	Y20	Z20	X21	Y21	Z21	X22	Y22	Z22	X23	Y23	Z23	X24	Y24	Z24	X25	Y25	Z25	X26	Y26	Z26	X27	Y27	Z27	X28	Y28	Z28	X29	Y29	Z29	X30	Y30	Z30	X31	Y31	Z31	X32	Y32	Z32	X33	Y33	Z33	X34	Y34	Z34	X35	Y35	Z35	X36	Y36	Z36

1831	7.32000	-1726.91345	995.33484	274.84906	-1896.72766	978.02600	349.72543	-1879.30029	776.26733	404.86121	-1915.57593	705.32227	405.16357	-1949.48389	637.86108	394.97745	-1985.21216	742.06952	384.61322	-1976.20959	519.32123	365.94952	-1991.39661	510.04678	246.37112	-1992.86719	329.45486	374.37613	-1988.47168	285.85550	356.01080	-2029.55884	346.67703	369.23822	-2037.82922	301.21890	357.56570	-2034.18445	110.28101	315.77750	-2063.83154	140.48811	248.63544	-1990.41931	47.09509	259.73663	-2167.09839	42.41383	345.07990	-2224.37573	67.27435	296.34964	-2200.13306	54.65501	241.97314	-1732.20264	1004.51416	174.23784	-1891.44580	966.39288	94.80018	-1822.63110	820.13690	45.88623	-1810.44910	741.46826	51.29236	-1796.71313	661.59454	64.66139	-1881.08069	734.14282	83.83631	-1746.83960	491.46240	110.71815	-1754.37280	503.27466	220.17157	-1650.65784	322.91974	113.43919	-1670.75806	269.85864	112.16487	-1711.33167	313.71216	110.30405	-1702.27222	270.42239	117.28001	-1618.55188	104.94977	173.12263	-1654.99695	111.41212	245.18994	-1568.89392	53.54068	224.86055	-1779.39246	35.88649	228.02069	-1797.44519	46.84505	175.51112	-1742.85168	36.03151	122.33147
1832	7.32400	-1730.67334	994.57385	274.64890	-1900.59351	977.46295	349.65100	-1881.37793	775.20282	404.94357	-1917.30530	704.08081	405.25861	-1950.94788	636.39099	395.07162	-1987.31433	740.46729	384.89832	-1977.46411	517.84235	365.44156	-1993.06519	508.74945	245.70964	-1997.18164	327.95190	373.55087	-1994.21216	281.06976	359.44736	-2034.73779	343.51978	363.89078	-2042.60876	300.62082	357.03122	-2043.02930	109.48543	315.09052	-2072.17871	140.53986	248.03188	-2000.33984	46.01412	258.82330	-2177.35767	43.03996	343.43845	-2234.14697	69.29446	294.67798	-2209.79321	57.18183	240.32660	-1735.79028	1003.97534	174.02515	-1895.20398	965.95251	94.58764	-1825.85461	819.84143	45.60835	-1813.44299	741.26605	51.16317	-1799.47754	661.42242	64.54881	-1884.09802	733.72540	83.58666	-1749.08044	491.42712	110.60638	-1756.67566	503.21738	220.06793	-1652.20630	323.21844	113.45056	-1671.85498	270.12128	112.08456	-1712.54053	313.79196	110.18611	-1703.37244	270.65567	117.21596	-1618.75305	105.40688	173.12772	-1655.18140	111.57672	245.09746	-1568.99731	54.11345	224.84248	-1779.35291	35.82358	228.06267	-1797.42627	46.75064	175.50688	-1742.87402	36.02585	122.32736
1833	7.32800	-1734.39514	993.97034	274.40106	-1904.46619	976.88281	349.59940	-1883.29614	774.04968	405.15323	-1919.05334	702.84149	405.35791	-1952.58167	635.05066	395.05734	-1989.66772	738.83765	385.11435	-1978.81421	516.44720	364.94086	-1994.65820	507.39526	245.07123	-2001.28394	326.61029	372.79889	-1999.17639	279.69531	358.56964	-2038.56738	342.83511	363.41470	-2047.21228	300.10590	356.46466	-2051.61792	108.78682	314.51584	-2080.19678	140.70952	247.48935	-2010.00134	44.96629	257.91382	-2187.40942	43.79126	341.72897	-2243.47827	71.63776	293.06876	-2219.12402	59.77215	238.68378	-1739.51514	1003.35980	173.85312	-1898.86243	965.43134	94.43545	-1829.19739	819.53619	45.38426	-1816.47986	741.02435	50.98308	-1802.61340	661.23853	64.34436	-1887.11731	733.29828	83.35442	-1751.28857	491.29364	110.50804	-1759.12073	503.13049	219.96138	-1653.79126	323.70038	113.33061	-1673.06982	270.42761	112.01826	-1714.09253	313.90585	110.17514	-1704.59216	270.72379	117.11701	-1619.05798	105.87141	173.12401	-1655.46814	111.97937	245.12007	-1569.09192	54.62019	224.79503	-1779.39783	35.83160	228.04787	-1797.40796	46.66442	175.46021	-1742.88708	36.02833	122.26276
1834	7.33200	-1738.23975	993.36542	274.28119	-1908.33252	976.28241	349.51089	-1885.21509	772.88727	405.33813	-1920.83521	701.61023	405.45148	-1954.30054	633.68341	395.04843	-1992.01514	737.27173	385.29340	-1980.16211	515.00647	364.43896	-1996.35046	506.09943	244.26686	-2005.25073	325.55103	372.15970	-2006.46765	277.17685	358.05304	-2042.28687	342.39896	363.00494	-2053.21875	300.59268	356.61185	-2060.01343	108.33055	313.93051	-2088.00195	140.96234	246.95213	-2019.34082	44.21757	257.06775	-2197.19360	44.73286	340.04282	-2252.64575	74.06832	291.46976	-2228.22925	62.57695	237.14120	-1743.50049	1002.82220	173.80272	-1902.69299	964.95502	94.34721	-1832.57776	819.24432	45.13589	-1819.64844	740.77795	50.71890	-1805.15820	661.02252	64.20137	-1890.15564	732.80206	83.07305	-1753.61145	491.25140	110.33107	-1761.64685	503.12390	219.82382	-1655.00098	324.09109	113.20531	-1674.25195	270.70691	111.93493	-1715.50818	313.98456	110.07352	-1705.82715	270.74054	117.15922	-1619.38293	106.44402	173.00800	-1655.86597	112.56322	245.22015	-1569.30005	55.15268	224.70177	-1779.45703	35.81451	228.01688	-1797.48120	46.59052	175.42404	-1742.93628	36.02853	122.22718
